<?xml version="1.0" standalone="no"?>
<!DOCTYPE svg PUBLIC "-//W3C//DTD SVG 20010904//EN"
 "http://www.w3.org/TR/2001/REC-SVG-20010904/DTD/svg10.dtd">
<svg version="1.0" xmlns="http://www.w3.org/2000/svg"
 width="512.000000pt" height="512.000000pt" viewBox="0 0 512.000000 512.000000"
 preserveAspectRatio="xMidYMid meet">
<metadata>
Created by potrace 1.14, written by Peter Selinger 2001-2017
</metadata>
<g transform="translate(0.000000,512.000000) scale(0.100000,-0.100000)"
fill="#000000" stroke="none">
<path d="M960 5100 c-57 -27 -86 -54 -113 -105 -26 -50 -28 -145 -4 -192 19
-35 14 -29 514 -757 l350 -510 -25 -42 c-20 -33 -34 -44 -61 -49 -19 -4 -51
-15 -71 -25 -39 -20 -110 -87 -110 -104 0 -12 0 -11 -134 139 -119 134 -139
157 -221 250 -38 44 -73 82 -76 85 -3 3 -41 46 -84 95 -44 50 -82 92 -85 95
-3 3 -39 43 -80 90 -41 47 -77 87 -80 90 -3 3 -57 64 -120 135 -179 204 -187
210 -295 209 -58 0 -77 -5 -111 -27 -74 -46 -115 -130 -108 -215 8 -84 -42
-29 802 -892 l201 -205 -32 -6 c-56 -10 -123 -46 -158 -84 -35 -39 -68 -99
-69 -127 0 -10 -11 -19 -28 -22 -93 -21 -182 -110 -205 -206 -11 -45 -14 -50
-40 -50 -17 0 -37 -10 -51 -25 -20 -21 -22 -33 -20 -97 3 -77 13 -216 19 -258
2 -14 6 -41 9 -60 2 -20 7 -47 10 -60 3 -14 8 -36 10 -50 21 -131 106 -371
191 -545 122 -248 237 -408 440 -611 146 -147 257 -237 404 -329 47 -30 184
-105 191 -105 27 0 33 -37 34 -193 2 -148 4 -166 25 -210 26 -55 83 -101 142
-117 25 -7 326 -10 866 -8 799 3 829 4 858 22 105 68 118 100 122 311 2 94 7
173 11 177 4 4 39 23 77 44 104 54 289 179 380 254 254 211 453 464 599 759
152 305 228 608 241 950 3 98 2 105 -20 127 -13 13 -34 24 -47 24 -20 0 -23 6
-25 41 -5 87 -81 192 -162 225 -30 12 -39 23 -54 64 -28 78 -109 157 -179 175
-14 4 -31 22 -43 47 -39 81 -141 140 -243 140 -43 0 -49 3 -74 39 -32 45 -108
96 -158 104 -31 5 -39 14 -65 62 -30 57 -80 102 -145 129 -44 19 -133 21 -183
5 -36 -12 -40 -11 -65 12 -53 49 -123 72 -208 69 -48 -2 -52 0 -74 31 -13 19
-42 46 -64 60 -109 68 -248 58 -338 -26 -26 -24 -28 -25 -70 -10 -57 19 -144
19 -190 0 -35 -15 -41 -15 -75 0 -82 34 -217 11 -279 -48 -18 -17 -29 -19 -60
-13 -60 12 -121 6 -175 -17 -27 -12 -51 -20 -53 -18 -2 2 -99 159 -216 349
-117 190 -227 368 -245 395 -50 78 -299 482 -312 507 -17 33 -73 87 -105 104
-50 26 -137 28 -188 4z"/>
</g>
</svg>
